<mxfile host="drawio-plugin" modified="2022-10-19T15:49:14.245Z" agent="5.0 (Macintosh; Intel Mac OS X 10_14_6) AppleWebKit/537.36 (KHTML, like Gecko) Chrome/98.0.4758.102 Safari/537.36" etag="DpRIpaG2uBYzXXs1qQkR" version="15.5.4" type="embed"><diagram id="mZNgoUtzMTcvy0qBFK4C" name="第 1 页"><mxGraphModel dx="2346" dy="1121" grid="1" gridSize="10" guides="1" tooltips="1" connect="1" arrows="1" fold="1" page="1" pageScale="1" pageWidth="827" pageHeight="1169" background="#FFFFFF" math="0" shadow="0"><root><mxCell id="0"/><mxCell id="1" parent="0"/><mxCell id="4" value="" style="rounded=0;whiteSpace=wrap;html=1;fontSize=20;fillColor=#f5f5f5;strokeColor=#666666;fontColor=#333333;" vertex="1" parent="1"><mxGeometry x="-100" y="40" width="1180" height="800" as="geometry"/></mxCell><mxCell id="CBJ-4ZSiSI2ZfZfj26DY-1" value="" style="rounded=1;whiteSpace=wrap;html=1;" parent="1" vertex="1"><mxGeometry x="-60" y="120" width="130" height="440" as="geometry"/></mxCell><mxCell id="CBJ-4ZSiSI2ZfZfj26DY-2" value="数据源" style="text;html=1;strokeColor=none;fillColor=none;align=center;verticalAlign=middle;whiteSpace=wrap;rounded=0;fontStyle=1;fontSize=16;" parent="1" vertex="1"><mxGeometry x="-30" y="120" width="60" height="30" as="geometry"/></mxCell><mxCell id="CBJ-4ZSiSI2ZfZfj26DY-10" value="" style="edgeStyle=orthogonalEdgeStyle;orthogonalLoop=1;jettySize=auto;html=1;fontSize=16;curved=1;" parent="1" source="CBJ-4ZSiSI2ZfZfj26DY-3" target="CBJ-4ZSiSI2ZfZfj26DY-7" edge="1"><mxGeometry relative="1" as="geometry"><mxPoint x="130" y="180" as="targetPoint"/></mxGeometry></mxCell><mxCell id="CBJ-4ZSiSI2ZfZfj26DY-3" value="strava" style="rounded=1;whiteSpace=wrap;html=1;fontSize=16;fillColor=#d5e8d4;strokeColor=#82b366;" parent="1" vertex="1"><mxGeometry x="-47.5" y="160" width="105" height="40" as="geometry"/></mxCell><mxCell id="CBJ-4ZSiSI2ZfZfj26DY-15" value="" style="edgeStyle=orthogonalEdgeStyle;curved=1;orthogonalLoop=1;jettySize=auto;html=1;fontSize=16;entryX=0;entryY=0;entryDx=30;entryDy=0;entryPerimeter=0;" parent="1" source="CBJ-4ZSiSI2ZfZfj26DY-4" target="CBJ-4ZSiSI2ZfZfj26DY-12" edge="1"><mxGeometry relative="1" as="geometry"><mxPoint x="133.75" y="240" as="targetPoint"/></mxGeometry></mxCell><mxCell id="CBJ-4ZSiSI2ZfZfj26DY-4" value="行者" style="rounded=1;whiteSpace=wrap;html=1;fontSize=16;fillColor=#d5e8d4;strokeColor=#82b366;" parent="1" vertex="1"><mxGeometry x="-47.5" y="220" width="107.5" height="40" as="geometry"/></mxCell><mxCell id="CBJ-4ZSiSI2ZfZfj26DY-5" value="keep" style="rounded=1;whiteSpace=wrap;html=1;fontSize=16;" parent="1" vertex="1"><mxGeometry x="-47.5" y="340" width="107.5" height="40" as="geometry"/></mxCell><mxCell id="CBJ-4ZSiSI2ZfZfj26DY-6" value="Garmin" style="rounded=1;whiteSpace=wrap;html=1;fontSize=16;" parent="1" vertex="1"><mxGeometry x="-47.5" y="280" width="107.5" height="40" as="geometry"/></mxCell><mxCell id="CBJ-4ZSiSI2ZfZfj26DY-24" value="" style="edgeStyle=orthogonalEdgeStyle;curved=1;orthogonalLoop=1;jettySize=auto;html=1;fontSize=16;entryX=0;entryY=0.5;entryDx=0;entryDy=0;entryPerimeter=0;" parent="1" source="CBJ-4ZSiSI2ZfZfj26DY-7" target="CBJ-4ZSiSI2ZfZfj26DY-17" edge="1"><mxGeometry relative="1" as="geometry"><mxPoint x="580" y="260" as="targetPoint"/></mxGeometry></mxCell><mxCell id="CBJ-4ZSiSI2ZfZfj26DY-26" value="" style="edgeStyle=orthogonalEdgeStyle;curved=1;orthogonalLoop=1;jettySize=auto;html=1;fontSize=16;entryX=0.245;entryY=0;entryDx=0;entryDy=0;entryPerimeter=0;" parent="1" source="CBJ-4ZSiSI2ZfZfj26DY-7" target="CBJ-4ZSiSI2ZfZfj26DY-19" edge="1"><mxGeometry relative="1" as="geometry"><mxPoint x="600" y="260" as="targetPoint"/></mxGeometry></mxCell><mxCell id="CBJ-4ZSiSI2ZfZfj26DY-7" value="data.db" style="shape=cylinder3;whiteSpace=wrap;html=1;boundedLbl=1;backgroundOutline=1;size=15;fontSize=16;fillColor=#bac8d3;strokeColor=#23445d;" parent="1" vertex="1"><mxGeometry x="380" y="210" width="120" height="100" as="geometry"/></mxCell><mxCell id="CBJ-4ZSiSI2ZfZfj26DY-8" value="本地数据库" style="text;html=1;strokeColor=none;fillColor=none;align=center;verticalAlign=middle;whiteSpace=wrap;rounded=0;fontSize=16;" parent="1" vertex="1"><mxGeometry x="395" y="320" width="90" height="30" as="geometry"/></mxCell><mxCell id="CBJ-4ZSiSI2ZfZfj26DY-11" value="请求接口获取json数据，直接存入数据库" style="text;html=1;strokeColor=none;fillColor=none;align=center;verticalAlign=middle;whiteSpace=wrap;rounded=0;fontSize=16;" parent="1" vertex="1"><mxGeometry x="80" y="150" width="210" height="30" as="geometry"/></mxCell><mxCell id="CBJ-4ZSiSI2ZfZfj26DY-18" value="" style="edgeStyle=orthogonalEdgeStyle;curved=1;orthogonalLoop=1;jettySize=auto;html=1;fontSize=16;entryX=0;entryY=0.5;entryDx=0;entryDy=0;entryPerimeter=0;" parent="1" source="CBJ-4ZSiSI2ZfZfj26DY-12" target="CBJ-4ZSiSI2ZfZfj26DY-7" edge="1"><mxGeometry relative="1" as="geometry"/></mxCell><mxCell id="CBJ-4ZSiSI2ZfZfj26DY-12" value="" style="shape=card;whiteSpace=wrap;html=1;fontSize=16;fillColor=#fad7ac;strokeColor=#b46504;" parent="1" vertex="1"><mxGeometry x="170" y="305" width="140" height="100" as="geometry"/></mxCell><mxCell id="CBJ-4ZSiSI2ZfZfj26DY-13" value="GPX_OUT 文件夹" style="text;html=1;strokeColor=none;fillColor=none;align=center;verticalAlign=middle;whiteSpace=wrap;rounded=0;fontSize=16;" parent="1" vertex="1"><mxGeometry x="165" y="410" width="150" height="30" as="geometry"/></mxCell><mxCell id="CBJ-4ZSiSI2ZfZfj26DY-16" value="导出gpx文件" style="text;html=1;strokeColor=none;fillColor=none;align=center;verticalAlign=middle;whiteSpace=wrap;rounded=0;fontSize=16;" parent="1" vertex="1"><mxGeometry x="110" y="220" width="140" height="30" as="geometry"/></mxCell><mxCell id="CBJ-4ZSiSI2ZfZfj26DY-31" value="" style="edgeStyle=orthogonalEdgeStyle;curved=1;orthogonalLoop=1;jettySize=auto;html=1;fontSize=16;entryX=0.5;entryY=0;entryDx=0;entryDy=0;" parent="1" source="CBJ-4ZSiSI2ZfZfj26DY-17" target="CBJ-4ZSiSI2ZfZfj26DY-27" edge="1"><mxGeometry relative="1" as="geometry"><mxPoint x="805" y="215" as="targetPoint"/></mxGeometry></mxCell><mxCell id="CBJ-4ZSiSI2ZfZfj26DY-17" value="activites.json" style="shape=note;whiteSpace=wrap;html=1;backgroundOutline=1;darkOpacity=0.05;fontSize=16;" parent="1" vertex="1"><mxGeometry x="620" y="170" width="110" height="90" as="geometry"/></mxCell><mxCell id="CBJ-4ZSiSI2ZfZfj26DY-19" value="svg file" style="shape=note;whiteSpace=wrap;html=1;backgroundOutline=1;darkOpacity=0.05;fontSize=16;" parent="1" vertex="1"><mxGeometry x="620" y="320" width="110" height="70" as="geometry"/></mxCell><mxCell id="CBJ-4ZSiSI2ZfZfj26DY-20" value="svg file" style="shape=note;whiteSpace=wrap;html=1;backgroundOutline=1;darkOpacity=0.05;fontSize=16;" parent="1" vertex="1"><mxGeometry x="630" y="330" width="110" height="70" as="geometry"/></mxCell><mxCell id="CBJ-4ZSiSI2ZfZfj26DY-21" value="svg file" style="shape=note;whiteSpace=wrap;html=1;backgroundOutline=1;darkOpacity=0.05;fontSize=16;" parent="1" vertex="1"><mxGeometry x="640" y="340" width="110" height="70" as="geometry"/></mxCell><mxCell id="CBJ-4ZSiSI2ZfZfj26DY-29" value="" style="edgeStyle=orthogonalEdgeStyle;curved=1;orthogonalLoop=1;jettySize=auto;html=1;fontSize=16;" parent="1" source="CBJ-4ZSiSI2ZfZfj26DY-22" target="CBJ-4ZSiSI2ZfZfj26DY-27" edge="1"><mxGeometry relative="1" as="geometry"><mxPoint x="855" y="385" as="targetPoint"/></mxGeometry></mxCell><mxCell id="CBJ-4ZSiSI2ZfZfj26DY-22" value="svg file" style="shape=note;whiteSpace=wrap;html=1;backgroundOutline=1;darkOpacity=0.05;fontSize=16;" parent="1" vertex="1"><mxGeometry x="650" y="350" width="110" height="70" as="geometry"/></mxCell><mxCell id="CBJ-4ZSiSI2ZfZfj26DY-27" value="web" style="rounded=0;whiteSpace=wrap;html=1;fontSize=16;fillColor=#f5f5f5;strokeColor=#666666;fontColor=#333333;" parent="1" vertex="1"><mxGeometry x="870" y="250" width="130" height="90" as="geometry"/></mxCell><mxCell id="CBJ-4ZSiSI2ZfZfj26DY-32" value="&amp;nbsp; 2022.gpx" style="shape=note;whiteSpace=wrap;html=1;backgroundOutline=1;darkOpacity=0.05;fontSize=16;align=left;" parent="1" vertex="1"><mxGeometry x="175" y="333" width="110" height="40" as="geometry"/></mxCell><mxCell id="CBJ-4ZSiSI2ZfZfj26DY-33" value="&amp;nbsp; 2022.gpx" style="shape=note;whiteSpace=wrap;html=1;backgroundOutline=1;darkOpacity=0.05;fontSize=16;align=left;" parent="1" vertex="1"><mxGeometry x="185" y="343" width="110" height="40" as="geometry"/></mxCell><mxCell id="CBJ-4ZSiSI2ZfZfj26DY-34" value="&amp;nbsp; 2022.gpx" style="shape=note;whiteSpace=wrap;html=1;backgroundOutline=1;darkOpacity=0.05;fontSize=16;align=left;" parent="1" vertex="1"><mxGeometry x="195" y="353" width="110" height="40" as="geometry"/></mxCell><mxCell id="2" value="" style="rounded=1;whiteSpace=wrap;html=1;" vertex="1" parent="1"><mxGeometry x="420" y="620" width="120" height="60" as="geometry"/></mxCell><mxCell id="3" value="运行原理图" style="text;html=1;strokeColor=none;fillColor=none;align=center;verticalAlign=middle;whiteSpace=wrap;rounded=0;fontStyle=1;fontSize=20;" vertex="1" parent="1"><mxGeometry x="320" y="40" width="126" height="30" as="geometry"/></mxCell><mxCell id="5" value="" style="rounded=1;whiteSpace=wrap;html=1;fontSize=20;fillColor=#eeeeee;strokeColor=#36393d;" vertex="1" parent="1"><mxGeometry x="250" y="870" width="120" height="60" as="geometry"/></mxCell></root></mxGraphModel></diagram></mxfile>